<svg xmlns="http://www.w3.org/2000/svg" xmlns:xlink="http://www.w3.org/1999/xlink" version="1.1" width="256" height="256" viewBox="0 0 256 256" xml:space="preserve">

<defs>
</defs>
<g style="stroke: none; stroke-width: 0; stroke-dasharray: none; stroke-linecap: butt; stroke-linejoin: miter; stroke-miterlimit: 10; fill: none; fill-rule: nonzero; opacity: 1;" transform="translate(1.4065934065934016 1.4065934065934016) scale(2.81 2.81)" >
	<path d="M 52.191 90 H 24.543 v -5.797 c 9.214 -4.59 18.43 -4.589 27.648 0 V 90 z" style="stroke: none; stroke-width: 1; stroke-dasharray: none; stroke-linecap: butt; stroke-linejoin: miter; stroke-miterlimit: 10; fill: rgb(56,228,228); fill-rule: nonzero; opacity: 1;" transform=" matrix(1 0 0 1 0 0) " stroke-linecap="round" />
	<path d="M 62.604 7.417 c -2.525 0 -4.927 0.728 -7.102 2.037 c -0.031 -0.484 -0.064 -0.968 -0.064 -1.452 V 0 H 16.983 l 1.871 3.922 c 1.593 3.339 2.26 7.043 1.933 10.728 l -0.922 10.369 c -0.223 2.51 -0.67 4.978 -1.31 7.394 c 6.371 -1.072 12.383 3.022 19.235 4.179 c 6.713 1.868 13.884 -2.387 20.38 -4.178 c -0.641 -2.416 -1.087 -4.885 -1.311 -7.395 l -0.74 -8.322 c 1.791 -1.51 3.869 -2.383 6.091 -2.383 c 6.695 0 12.123 7.857 12.123 17.55 c 0 8.659 -4.332 15.853 -10.029 17.289 c -1.02 2.532 -1.173 4.896 2.141 6.584 c 7.957 -2.418 13.909 -12.188 13.909 -23.873 C 80.355 18.363 72.408 7.417 62.604 7.417 z" style="stroke: none; stroke-width: 1; stroke-dasharray: none; stroke-linecap: butt; stroke-linejoin: miter; stroke-miterlimit: 10; fill: rgb(56,228,228); fill-rule: nonzero; opacity: 1;" transform=" matrix(1 0 0 1 0 0) " stroke-linecap="round" />
	<polygon points="58.17,32.41 58.17,32.41 58.17,32.41 " style="stroke: none; stroke-width: 1; stroke-dasharray: none; stroke-linecap: butt; stroke-linejoin: miter; stroke-miterlimit: 10; fill: rgb(221,245,255); fill-rule: nonzero; opacity: 1;" transform="  matrix(1 0 0 1 0 0) "/>
	<polygon points="18.55,32.41 18.55,32.41 18.55,32.41 " style="stroke: none; stroke-width: 1; stroke-dasharray: none; stroke-linecap: butt; stroke-linejoin: miter; stroke-miterlimit: 10; fill: rgb(221,245,255); fill-rule: nonzero; opacity: 1;" transform="  matrix(1 0 0 1 0 0) "/>
	<path d="M 18.555 32.415 c -1.151 4.337 -2.928 8.504 -5.167 12.435 c -2.381 4.182 -3.743 9.019 -3.743 14.176 c 0 10.85 6.019 20.292 14.898 25.177 h 27.639 c 8.879 -4.884 14.898 -14.326 14.898 -25.177 c 0 -5.157 -1.361 -9.995 -3.743 -14.176 c -2.239 -3.931 -4.017 -8.098 -5.167 -12.435 l 0.003 -0.001 c -6.498 1.792 -13.097 1.868 -19.81 0 c -6.853 -1.157 -13.439 -1.073 -19.811 0 L 18.555 32.415 z" style="stroke: none; stroke-width: 1; stroke-dasharray: none; stroke-linecap: butt; stroke-linejoin: miter; stroke-miterlimit: 10; fill: rgb(255,222,85); fill-rule: nonzero; opacity: 1;" transform=" matrix(1 0 0 1 0 0) " stroke-linecap="round" />
	<path d="M 45.082 73.505 l -7.905 3.005 c -0.826 0.314 -1.749 -0.101 -2.063 -0.927 l -3.005 -7.905 c -0.314 -0.826 0.101 -1.749 0.927 -2.063 l 7.905 -3.005 c 0.826 -0.314 1.749 0.101 2.063 0.927 l 3.005 7.905 C 46.322 72.268 45.907 73.192 45.082 73.505 z" style="stroke: none; stroke-width: 1; stroke-dasharray: none; stroke-linecap: butt; stroke-linejoin: miter; stroke-miterlimit: 10; fill: rgb(255,255,255); fill-rule: nonzero; opacity: 1;" transform=" matrix(1 0 0 1 0 0) " stroke-linecap="round" />
	<path d="M 52.306 60.324 l -7.973 -2.818 c -0.833 -0.294 -1.269 -1.208 -0.975 -2.041 l 2.818 -7.973 c 0.294 -0.833 1.208 -1.269 2.041 -0.975 l 7.973 2.818 c 0.833 0.294 1.269 1.208 0.975 2.041 l -2.818 7.973 C 54.052 60.182 53.138 60.618 52.306 60.324 z" style="stroke: none; stroke-width: 1; stroke-dasharray: none; stroke-linecap: butt; stroke-linejoin: miter; stroke-miterlimit: 10; fill: rgb(255,255,255); fill-rule: nonzero; opacity: 1;" transform=" matrix(1 0 0 1 0 0) " stroke-linecap="round" />
	<path d="M 38.395 54.7 c -2.999 5.069 -9.539 6.747 -14.608 3.748 c -5.069 -2.999 -6.747 -9.539 -3.748 -14.608 L 38.395 54.7 z" style="stroke: none; stroke-width: 1; stroke-dasharray: none; stroke-linecap: butt; stroke-linejoin: miter; stroke-miterlimit: 10; fill: rgb(255,255,255); fill-rule: nonzero; opacity: 1;" transform=" matrix(1 0 0 1 0 0) " stroke-linecap="round" />
</g>
</svg>