<svg xmlns="http://www.w3.org/2000/svg" xmlns:xlink="http://www.w3.org/1999/xlink" version="1.1" width="256" height="256" viewBox="0 0 256 256" xml:space="preserve">

<defs>
</defs>
<g style="stroke: none; stroke-width: 0; stroke-dasharray: none; stroke-linecap: butt; stroke-linejoin: miter; stroke-miterlimit: 10; fill: none; fill-rule: nonzero; opacity: 1;" transform="translate(1.4065934065934016 1.4065934065934016) scale(2.81 2.81)" >
	<path d="M 45 16.033 L 45 16.033 c -0.011 0.012 -0.021 0.025 -0.031 0.037 c 0 0 0 0 0 0 c 2.196 -2.638 4.682 -4.903 7.345 -6.596 C 47.992 3.795 42.345 0.963 35.363 1 c 0 0 -0.211 4.285 -0.171 6.677 C 39.414 9.034 42.924 11.459 45 16.033 z" style="stroke: none; stroke-width: 1; stroke-dasharray: none; stroke-linecap: butt; stroke-linejoin: miter; stroke-miterlimit: 10; fill: rgb(254,85,120); fill-rule: nonzero; opacity: 1;" transform=" matrix(1 0 0 1 0 0) " stroke-linecap="round" />
	<ellipse cx="54.309" cy="59.234" rx="7.989" ry="4.494" style="stroke: none; stroke-width: 1; stroke-dasharray: none; stroke-linecap: butt; stroke-linejoin: miter; stroke-miterlimit: 10; fill: rgb(237,232,84); fill-rule: nonzero; opacity: 1;" transform=" matrix(0.7071 -0.7071 0.7071 0.7071 -25.9779 55.7533) "/>
	<ellipse cx="35.694" cy="69.819" rx="4.494" ry="7.989" style="stroke: none; stroke-width: 1; stroke-dasharray: none; stroke-linecap: butt; stroke-linejoin: miter; stroke-miterlimit: 10; fill: rgb(237,232,84); fill-rule: nonzero; opacity: 1;" transform=" matrix(0.7071 -0.7071 0.7071 0.7071 -38.9179 45.6858) "/>
	<path d="M 45 47.307 C 45 47.307 45 47.307 45 47.307 c 5.622 0 10.63 -2.631 13.86 -6.729 c 3.202 -4.064 3.911 -9.504 2.271 -14.412 c -2.137 -6.397 -1.256 -13.235 1.505 -19.972 c -15.441 0 -29.78 22.736 -26.454 38.752 l 0 0.001 C 38.776 46.448 41.788 47.307 45 47.307 C 45 47.307 45 47.307 45 47.307 z" style="stroke: none; stroke-width: 1; stroke-dasharray: none; stroke-linecap: butt; stroke-linejoin: miter; stroke-miterlimit: 10; fill: rgb(254,85,120); fill-rule: nonzero; opacity: 1;" transform=" matrix(1 0 0 1 0 0) " stroke-linecap="round" />
	<path d="M 45 48.307 c -3.277 0 -6.5 -0.862 -9.319 -2.494 c -0.246 -0.143 -0.42 -0.384 -0.478 -0.663 c -1.876 -9.034 1.545 -20.565 8.716 -29.378 c 5.55 -6.821 12.197 -10.578 18.717 -10.578 c 0.333 0 0.645 0.166 0.83 0.443 c 0.187 0.277 0.222 0.628 0.096 0.937 c -2.896 7.067 -3.395 13.552 -1.482 19.276 c 1.802 5.391 0.892 11.128 -2.435 15.348 C 56.084 45.715 50.746 48.307 45 48.307 z M 37.075 44.301 c 2.419 1.313 5.15 2.006 7.925 2.006 c 5.13 0 9.896 -2.313 13.074 -6.348 c 2.907 -3.688 3.695 -8.726 2.108 -13.476 c -1.935 -5.79 -1.611 -12.246 0.961 -19.212 c -5.384 0.552 -11.018 4.042 -15.674 9.763 C 38.886 25.126 35.548 36.015 37.075 44.301 z" style="stroke: none; stroke-width: 1; stroke-dasharray: none; stroke-linecap: butt; stroke-linejoin: miter; stroke-miterlimit: 10; fill: rgb(0,0,0); fill-rule: nonzero; opacity: 1;" transform=" matrix(1 0 0 1 0 0) " stroke-linecap="round" />
	<path d="M 45 16.033 c -6.73 8.064 -10.748 19.62 -8.818 28.914 l 0 0.001 c -1.946 -1.126 -3.657 -2.613 -5.041 -4.369 c -3.202 -4.064 -3.911 -9.504 -2.271 -14.412 c 2.137 -6.397 1.256 -13.235 -1.505 -19.972 C 34.922 6.956 41.733 8.837 45 16.033 L 45 16.033 z" style="stroke: none; stroke-width: 1; stroke-dasharray: none; stroke-linecap: butt; stroke-linejoin: miter; stroke-miterlimit: 10; fill: rgb(240,59,97); fill-rule: nonzero; opacity: 1;" transform=" matrix(1 0 0 1 0 0) " stroke-linecap="round" />
	<path d="M 36.182 45.947 c -0.172 0 -0.345 -0.044 -0.5 -0.134 c -2.059 -1.189 -3.851 -2.742 -5.327 -4.615 c -3.325 -4.22 -4.235 -9.958 -2.434 -15.348 c 1.912 -5.724 1.414 -12.209 -1.482 -19.276 c -0.133 -0.325 -0.086 -0.696 0.124 -0.978 c 0.21 -0.281 0.554 -0.433 0.901 -0.397 c 7.107 0.716 14.857 2.514 18.446 10.42 c 0.159 0.35 0.103 0.759 -0.143 1.054 c -6.914 8.285 -10.373 19.565 -8.606 28.07 c 0.08 0.386 -0.074 0.783 -0.393 1.014 C 36.594 45.883 36.388 45.947 36.182 45.947 z M 28.894 7.373 c 2.537 6.927 2.849 13.349 0.924 19.11 c -1.587 4.75 -0.799 9.787 2.108 13.476 c 0.858 1.09 1.837 2.058 2.922 2.895 c -0.888 -8.543 2.553 -19.012 8.976 -26.964 C 40.825 9.924 35.003 8.145 28.894 7.373 z" style="stroke: none; stroke-width: 1; stroke-dasharray: none; stroke-linecap: butt; stroke-linejoin: miter; stroke-miterlimit: 10; fill: rgb(0,0,0); fill-rule: nonzero; opacity: 1;" transform=" matrix(1 0 0 1 0 0) " stroke-linecap="round" />
	<path d="M 45.738 16.71 l -0.787 -0.655 l -0.861 0.391 c -1.762 -3.882 -4.687 -6.366 -9.203 -7.817 c -0.408 -0.131 -0.687 -0.507 -0.694 -0.936 c -0.04 -2.397 0.164 -6.566 0.172 -6.743 C 34.39 0.421 34.826 0.003 35.357 0 c 0.046 0 0.093 0 0.14 0 c 7.209 0 13.135 2.983 17.613 8.869 c 0.169 0.223 0.237 0.506 0.188 0.781 s -0.212 0.518 -0.447 0.668 C 50.324 11.925 47.931 14.076 45.738 16.71 z M 36.187 6.958 c 4.121 1.467 7.092 3.866 9.032 7.297 c 1.771 -1.962 3.659 -3.642 5.637 -5.013 c -3.854 -4.658 -8.626 -7.031 -14.537 -7.229 C 36.267 3.226 36.189 5.343 36.187 6.958 z" style="stroke: none; stroke-width: 1; stroke-dasharray: none; stroke-linecap: butt; stroke-linejoin: miter; stroke-miterlimit: 10; fill: rgb(0,0,0); fill-rule: nonzero; opacity: 1;" transform=" matrix(1 0 0 1 0 0) " stroke-linecap="round" />
	<path d="M 45 90 c -0.552 0 -1 -0.447 -1 -1 V 47.307 c 0 -0.553 0.448 -1 1 -1 s 1 0.447 1 1 V 89 C 46 89.553 45.552 90 45 90 z" style="stroke: none; stroke-width: 1; stroke-dasharray: none; stroke-linecap: butt; stroke-linejoin: miter; stroke-miterlimit: 10; fill: rgb(0,0,0); fill-rule: nonzero; opacity: 1;" transform=" matrix(1 0 0 1 0 0) " stroke-linecap="round" />
	<path d="M 51.027 66.431 c -1.017 0 -1.98 -0.215 -2.831 -0.662 c -0.179 -0.094 -0.325 -0.24 -0.419 -0.419 c -1.492 -2.836 -0.402 -6.947 2.649 -9.999 c 3.053 -3.055 7.164 -4.143 9.999 -2.649 c 0.179 0.094 0.325 0.24 0.419 0.419 c 1.493 2.836 0.403 6.947 -2.649 9.999 C 56.059 65.256 53.401 66.431 51.027 66.431 z M 49.413 64.133 c 2.045 0.845 5.078 -0.139 7.368 -2.428 c 2.291 -2.29 3.274 -5.327 2.428 -7.368 c -2.042 -0.848 -5.077 0.137 -7.368 2.428 C 49.551 59.055 48.567 62.091 49.413 64.133 z" style="stroke: none; stroke-width: 1; stroke-dasharray: none; stroke-linecap: butt; stroke-linejoin: miter; stroke-miterlimit: 10; fill: rgb(0,0,0); fill-rule: nonzero; opacity: 1;" transform=" matrix(1 0 0 1 0 0) " stroke-linecap="round" />
	<path d="M 45 69.546 c -0.256 0 -0.512 -0.098 -0.707 -0.293 c -0.391 -0.391 -0.391 -1.023 0 -1.414 l 3.662 -3.662 c 0.391 -0.391 1.023 -0.391 1.414 0 s 0.391 1.023 0 1.414 l -3.662 3.662 C 45.512 69.448 45.256 69.546 45 69.546 z" style="stroke: none; stroke-width: 1; stroke-dasharray: none; stroke-linecap: butt; stroke-linejoin: miter; stroke-miterlimit: 10; fill: rgb(0,0,0); fill-rule: nonzero; opacity: 1;" transform=" matrix(1 0 0 1 0 0) " stroke-linecap="round" />
	<path d="M 38.972 77.018 c -2.375 0 -5.031 -1.175 -7.167 -3.313 c -3.052 -3.052 -4.141 -7.163 -2.65 -9.999 c 0.094 -0.179 0.241 -0.325 0.42 -0.419 c 2.835 -1.493 6.947 -0.402 9.999 2.649 c 3.052 3.052 4.141 7.163 2.65 9.999 c -0.094 0.179 -0.241 0.325 -0.419 0.419 C 40.954 76.802 39.988 77.018 38.972 77.018 z M 30.791 64.923 c -0.846 2.042 0.138 5.078 2.428 7.368 c 2.29 2.291 5.327 3.277 7.368 2.428 c 0.846 -2.041 -0.137 -5.078 -2.427 -7.368 C 35.869 65.06 32.833 64.079 30.791 64.923 z" style="stroke: none; stroke-width: 1; stroke-dasharray: none; stroke-linecap: butt; stroke-linejoin: miter; stroke-miterlimit: 10; fill: rgb(0,0,0); fill-rule: nonzero; opacity: 1;" transform=" matrix(1 0 0 1 0 0) " stroke-linecap="round" />
	<path d="M 45 80.132 c -0.256 0 -0.512 -0.098 -0.707 -0.293 l -3.662 -3.662 c -0.391 -0.391 -0.391 -1.023 0 -1.414 s 1.023 -0.391 1.414 0 l 3.662 3.662 c 0.391 0.391 0.391 1.023 0 1.414 C 45.512 80.034 45.256 80.132 45 80.132 z" style="stroke: none; stroke-width: 1; stroke-dasharray: none; stroke-linecap: butt; stroke-linejoin: miter; stroke-miterlimit: 10; fill: rgb(0,0,0); fill-rule: nonzero; opacity: 1;" transform=" matrix(1 0 0 1 0 0) " stroke-linecap="round" />
	<path d="M 54.974 1 C 48.466 0.966 43.318 3.854 39.53 9.664 c 2.24 1.425 4.1 3.42 5.409 6.24 h 0.172 c 2.882 -3.422 6.253 -6.204 9.864 -7.899 l 0 -0.001 C 55.311 7.849 54.974 1 54.974 1 z" style="stroke: none; stroke-width: 1; stroke-dasharray: none; stroke-linecap: butt; stroke-linejoin: miter; stroke-miterlimit: 10; fill: rgb(240,59,97); fill-rule: nonzero; opacity: 1;" transform=" matrix(1 0 0 1 0 0) " stroke-linecap="round" />
	<path d="M 45.11 16.904 h -0.171 c -0.389 0 -0.743 -0.226 -0.907 -0.579 c -1.157 -2.493 -2.806 -4.396 -5.039 -5.817 c -0.225 -0.144 -0.384 -0.371 -0.44 -0.632 c -0.056 -0.261 -0.006 -0.534 0.14 -0.758 C 42.637 3.068 48.077 0 54.859 0 c 0.041 0 0.08 0 0.12 0 c 0.531 0.003 0.968 0.42 0.994 0.951 c 0.37 7.522 0.092 7.651 -0.579 7.961 c -3.341 1.569 -6.635 4.21 -9.52 7.636 C 45.685 16.774 45.405 16.904 45.11 16.904 z M 40.917 9.4 c 1.78 1.297 3.199 2.9 4.301 4.858 c 2.727 -3.017 5.77 -5.396 8.881 -6.94 c 0.057 -0.896 0.011 -3.147 -0.08 -5.301 C 48.578 2.24 44.278 4.664 40.917 9.4 z M 54.55 7.101 c -0.002 0.001 -0.004 0.002 -0.006 0.003 C 54.546 7.103 54.548 7.102 54.55 7.101 z" style="stroke: none; stroke-width: 1; stroke-dasharray: none; stroke-linecap: butt; stroke-linejoin: miter; stroke-miterlimit: 10; fill: rgb(0,0,0); fill-rule: nonzero; opacity: 1;" transform=" matrix(1 0 0 1 0 0) " stroke-linecap="round" />
</g>
</svg>